<?xml version="1.0" encoding="UTF-8"?>
<svg width="283px" height="114px" viewBox="0 0 283 114" version="1.1" xmlns="http://www.w3.org/2000/svg" xmlns:xlink="http://www.w3.org/1999/xlink">
    <!-- Generator: Sketch 42 (36781) - http://www.bohemiancoding.com/sketch -->
    <title>Logo with text (primary)</title>
    <desc>Created with Sketch.</desc>
    <defs></defs>
    <g id="Page-2" stroke="none" stroke-width="1" fill="none" fill-rule="evenodd">
        <g id="Logo-with-text-(primary)" fill="#1F6C80">
            <g id="budacode_logo_javitott" transform="translate(10.000000, 7.000000)">
                <polygon id="Fill-1" points="250.427166 56.6146785 250.427166 51.6291411 261.055035 51.6291411 261.055035 46.6436037 250.427166 46.6436037 250.427166 42.0734313 261.677504 42.0734313 261.677504 37.0898222 245.027035 37.0898222 245.027035 61.5982876 262.301516 61.5982876 262.301516 56.6146785"></polygon>
                <g id="Group-20" transform="translate(0.000000, 0.036639)">
                    <path d="M228.822978,56.5761117 L226.018396,56.5761117 L226.018396,42.0360214 L229.203633,42.0360214 C233.773805,42.0360214 237.615836,44.2863975 237.615836,49.0987697 C237.615836,54.672066 233.842069,56.5761117 228.822978,56.5761117 M228.719233,37.0531837 L220.618651,37.0531837 L220.618651,61.5616491 L229.446219,61.5616491 C236.751552,61.5616491 243.223842,57.3030969 243.223842,49.3764511 C243.223842,40.4096571 236.61194,37.0531837 228.719233,37.0531837" id="Fill-2"></path>
                    <path d="M205.799337,57.1993135 C201.195611,57.1993135 198.18354,53.8744649 198.18354,49.3066065 C198.18354,44.7364341 201.195611,41.4135138 205.799337,41.4135138 C210.404219,41.4135138 213.415134,44.7364341 213.415134,49.3066065 C213.415134,53.8744649 210.404219,57.1993135 205.799337,57.1993135 M205.799337,36.4279764 C198.148829,36.4279764 192.575533,41.447067 192.575533,49.3066065 C192.575533,57.163832 198.148829,62.1829226 205.799337,62.1829226 C213.449844,62.1829226 219.023911,57.163832 219.023911,49.3066065 C219.023911,41.447067 213.449844,36.4279764 205.799337,36.4279764" id="Fill-4"></path>
                    <path d="M183.468163,57.1993135 C179.556713,57.1993135 176.544641,53.8744649 176.544641,49.3066065 C176.544641,44.7364341 179.556713,41.4135138 183.641328,41.4135138 C185.649504,41.4135138 187.20722,42.1404991 188.281692,43.420533 L192.435343,40.0266497 C190.356975,37.3620656 186.8956,36.4279764 184.160438,36.4279764 C176.509931,36.4279764 170.93702,41.447067 170.93702,49.3066065 C170.93702,57.163832 176.509931,62.1829226 184.160438,62.1829226 C187.51884,62.1829226 190.980987,60.833854 193.022716,57.9262987 L188.523121,54.5678969 C187.415095,56.2297428 185.649504,57.1993135 183.468163,57.1993135" id="Fill-6"></path>
                    <path d="M155.840719,51.7992595 L158.81808,44.1823055 L161.830537,51.7992595 L155.840719,51.7992595 Z M156.742798,37.0532223 L146.149639,61.5616877 L152.103591,61.5616877 L154.14532,56.3682749 L163.665163,56.3682749 L165.776312,61.5616877 L171.870647,61.5616877 L161.209225,37.0532223 L156.742798,37.0532223 Z" id="Fill-8"></path>
                    <path d="M132.679509,56.5761117 L129.875313,56.5761117 L129.875313,42.0360214 L133.06055,42.0360214 C137.629565,42.0360214 141.472753,44.2863975 141.472367,49.0987697 C141.472367,54.672066 137.6986,56.5761117 132.679509,56.5761117 M132.574608,37.0531837 L124.474025,37.0531837 L124.474025,61.5616491 L133.301593,61.5616491 C140.606155,61.5616491 147.080373,57.3030969 147.079602,49.3764511 C147.079602,40.4096571 140.4677,37.0531837 132.574608,37.0531837" id="Fill-10"></path>
                    <path d="M116.162906,51.9021559 C116.162906,54.913456 114.085696,57.1993135 111.247561,57.1993135 C108.373944,57.1993135 106.297505,54.913456 106.297505,51.9021559 L106.297505,37.0519881 L100.896602,37.0519881 L100.896602,52.1088742 C100.896602,57.8908172 104.428169,62.1829226 111.248718,62.1829226 C118.033399,62.1829226 121.563809,57.8908172 121.563038,52.1088742 L121.563038,37.0519881 L116.162906,37.0519881 L116.162906,51.9021559 Z" id="Fill-12"></path>
                    <path d="M90.785954,56.9915924 L85.9396429,56.9915924 L85.9396429,51.4182961 L90.0242586,51.4182961 C91.7898492,51.4182961 94.3865556,51.7993367 94.3857843,54.117976 C94.3857843,56.2646072 92.4832813,56.9915924 90.785954,56.9915924 L90.785954,56.9915924 Z M85.9407999,41.6203864 L89.6096649,41.6203864 C91.3062208,41.6203864 93.2442053,42.1406533 93.2442053,44.1835397 C93.2442053,46.1570057 91.5140962,46.8485094 89.8522504,46.8485094 L85.9407999,46.8485094 L85.9407999,41.6203864 Z M94.4224228,48.7533264 L94.4224228,48.6842917 C96.9485518,47.8878862 98.6451078,46.019322 98.6451078,43.2841606 C98.6451078,37.9534498 93.9719619,37.0532994 89.6798565,37.0532994 L80.5406687,37.0532994 L80.5406687,61.5617648 L90.5792356,61.5617648 C94.9407613,61.5617648 99.7866867,59.8652088 99.7866867,54.7412164 C99.7866867,51.5567511 97.6412125,49.1679201 94.4224228,48.7533264 L94.4224228,48.7533264 Z" id="Fill-14"></path>
                    <path d="M50.6378572,24.054495 C49.7145667,24.054495 48.9308882,24.462918 48.2436268,25.007482 L19.365151,47.1437001 C18.7014154,47.7399437 18.420263,48.6235104 18.420263,49.5402445 C18.420263,50.4546647 18.7233985,51.4157507 19.370936,51.9360176 L48.2532685,74.0772494 C48.9335879,74.6495815 49.7145667,75.0259941 50.6378572,75.0259941 C52.3266998,75.0259941 54.0039724,73.7540592 54.0039724,72.157777 L54.0039724,26.9223264 C54.0039724,25.2300127 52.3266998,24.054495 50.6378572,24.054495" id="Fill-16"></path>
                    <path d="M34.7873038,71.1944155 L34.0344788,70.5518917 L9.7350457,51.9198581 C9.11026264,51.3382699 8.8028848,50.4547032 8.8028848,49.5402831 C8.8028848,48.6235489 9.11913302,47.7052721 9.73735971,47.1607081 L34.0344788,28.5282888 L34.8054302,27.8668672 C35.439855,27.2968491 35.7310347,26.4117398 35.7310347,25.4969339 C35.7310347,24.5805854 35.4626094,23.6896911 34.8139149,23.1258436 L5.87913147,0.943345289 C5.19109877,0.392996259 4.43673107,0.0115700567 3.51344055,0.0115700567 C1.82459794,0.0115700567 0.148482394,1.22758302 0.148482394,2.87940144 L0.147325389,49.0593544 L0.147325389,96.2482163 C0.147325389,97.7233985 1.82459794,99.0689961 3.51344055,99.0689961 C4.43673107,99.0689961 5.20228316,98.6740715 5.90227159,98.1217941 L34.7861468,75.9716919 C35.439855,75.4228856 35.7310347,74.4976667 35.7310347,73.5832466 C35.7310347,72.6665124 35.4510394,71.7667477 34.7873038,71.1944155" id="Fill-18"></path>
                </g>
            </g>
        </g>
    </g>
</svg>